<?xml version="1.0" encoding="UTF-8"?>
<svg id="_레이어_2" data-name="레이어 2" xmlns="http://www.w3.org/2000/svg" viewBox="0 0 64.35 59.87">
  <path d="M54.47,16.45c-2.82-5.1-7.2-9.38-12.49-11.93-2.63-1.29-5.47-2.16-8.37-2.55-1.45-.17-2.92-.29-4.38-.22l-2.2.11-2.17.33c-2.88.55-5.68,1.5-8.27,2.89-2.57,1.42-4.92,3.22-6.98,5.32-2.08,2.08-3.73,4.56-5.04,7.17-.69,1.3-1.15,2.7-1.65,4.08l-.55,2.13c-.21.7-.25,1.44-.38,2.16-.87,5.81.26,11.85,2.99,17.02,1.4,2.57,3.18,4.93,5.25,7,2.09,2.06,4.53,3.73,7.13,5.06.67.3,1.3.67,1.99.92l2.06.75c1.41.37,2.81.8,4.27.96,1.44.28,2.91.27,4.36.34,1.46-.02,2.92-.17,4.35-.42,5.74-1.02,11.09-4.04,14.74-8.41l2.83,2.83c-4.94,4.24-10.93,7.01-17.19,7.93-3.13.49-6.32.44-9.43-.04-1.57-.19-3.09-.65-4.61-1.07l-2.22-.82c-.74-.27-1.43-.67-2.14-1-2.8-1.44-5.41-3.26-7.65-5.49-2.22-2.23-4.12-4.78-5.61-7.55C.22,38.37-.95,31.87.01,25.65c.14-.77.19-1.56.42-2.32l.6-2.28c.54-1.48,1.04-2.97,1.78-4.36,1.4-2.8,3.16-5.46,5.37-7.69,2.19-2.25,4.7-4.18,7.45-5.71,2.77-1.49,5.77-2.52,8.86-3.12l2.33-.36,2.36-.12c1.57-.08,3.15.05,4.71.23,3.13.4,6.16,1.35,9.01,2.69,5.71,2.67,10.5,7.21,13.61,12.7l-2.05,1.13Z"/>
  <path d="M59.12,29.91c.56-7.25,2.38-16.56,5.34-22.86l-9.84,7.11-12.11-.83c5.84,3.78,12.31,10.73,16.61,16.59Z"/>
</svg>