<?xml version="1.0" encoding="UTF-8"?>
<svg id="_레이어_2" data-name="레이어 2" xmlns="http://www.w3.org/2000/svg" viewBox="0 0 64.34 59.87">
  <path d="M7.83,15.31c3.12-5.49,7.9-10.03,13.61-12.7C24.29,1.28,27.33.32,30.45-.08c1.56-.18,3.14-.31,4.71-.23l2.36.12,2.33.36c3.09.6,6.09,1.63,8.86,3.12,2.75,1.53,5.26,3.46,7.45,5.71,2.22,2.23,3.97,4.89,5.37,7.69.74,1.39,1.25,2.88,1.78,4.36l.6,2.28c.22.76.27,1.55.42,2.32.96,6.22-.21,12.72-3.12,18.3-1.49,2.77-3.38,5.32-5.61,7.55-2.23,2.22-4.85,4.04-7.65,5.49-.72.33-1.4.73-2.14,1l-2.22.82c-1.52.42-3.04.88-4.61,1.07-3.12.49-6.31.53-9.43.04-6.26-.92-12.25-3.69-17.19-7.93l2.83-2.83c3.65,4.37,9,7.4,14.74,8.41,1.44.24,2.89.4,4.35.42,1.46-.07,2.92-.06,4.36-.34,1.45-.16,2.86-.59,4.27-.96l2.06-.75c.69-.25,1.32-.62,1.99-.92,2.6-1.33,5.04-3,7.13-5.06,2.08-2.06,3.85-4.43,5.25-7,2.73-5.17,3.86-11.22,2.99-17.02-.13-.72-.17-1.46-.38-2.16l-.55-2.13c-.5-1.38-.95-2.78-1.65-4.08-1.32-2.61-2.96-5.1-5.04-7.17-2.05-2.1-4.41-3.89-6.98-5.32-2.59-1.38-5.39-2.34-8.27-2.89l-2.17-.33-2.2-.11c-1.46-.07-2.93.05-4.38.22-2.9.39-5.74,1.26-8.37,2.55-5.28,2.54-9.67,6.82-12.49,11.93l-2.05-1.13Z"/>
  <path d="M5.22,29.91c4.3-5.86,10.78-12.8,16.61-16.59l-12.11.83L-.11,7.05c2.95,6.3,4.78,15.61,5.33,22.86Z"/>
</svg>